<?xml version="1.0" encoding="UTF-8"?>
<svg id="Layer_1" data-name="Layer 1" xmlns="http://www.w3.org/2000/svg" viewBox="0 0 792 351.11">
  <defs>
    <style>
      .cls-1 {
        fill: none;
        stroke: #e22d26;
        stroke-miterlimit: 10;
      }

      .cls-2 {
        fill: #e22d26;
        stroke-width: 0px;
      }
    </style>
  </defs>
  <g>
    <path class="cls-2" d="M146.09,96.44l17.53,53.96c.44,1.34,1.69,2.25,3.1,2.25h56.74c3.15,0,4.46,4.03,1.91,5.89l-45.9,33.35c-1.14.83-1.62,2.3-1.18,3.64l19.25,59.27c.43,1.33-1.09,2.43-2.22,1.61l-50.41-36.63c-1.14-.83-2.69-.83-3.83,0l-50.41,36.63c-1.13.82-2.65-.28-2.22-1.61l19.25-59.27c.44-1.34-.04-2.81-1.18-3.64l-45.9-33.35c-2.55-1.85-1.24-5.89,1.91-5.89h56.74c1.41,0,2.66-.91,3.1-2.25l17.53-53.96c.97-3,5.22-3,6.19,0Z"/>
    <path class="cls-1" d="M146.09,96.44l17.53,53.96c.44,1.34,1.69,2.25,3.1,2.25h56.74c3.15,0,4.46,4.03,1.91,5.89l-45.9,33.35c-1.14.83-1.62,2.3-1.18,3.64l19.25,59.27c.43,1.33-1.09,2.43-2.22,1.61l-50.41-36.63c-1.14-.83-2.69-.83-3.83,0l-50.41,36.63c-1.13.82-2.65-.28-2.22-1.61l19.25-59.27c.44-1.34-.04-2.81-1.18-3.64l-45.9-33.35c-2.55-1.85-1.24-5.89,1.91-5.89h56.74c1.41,0,2.66-.91,3.1-2.25l17.53-53.96c.97-3,5.22-3,6.19,0Z"/>
  </g>
  <g>
    <path class="cls-2" d="M266.51,174.57c-.79,0-1.49-.29-2.12-.88-.63-.59-.94-1.31-.94-2.18v-76.31c0-.86.31-1.59.94-2.18.63-.59,1.33-.88,2.12-.88h33.56c10.68,0,19.06,2.43,25.14,7.3,6.08,4.87,9.13,11.66,9.13,20.37,0,5.5-1.26,10.17-3.77,14.01-2.51,3.85-5.81,6.87-9.89,9.07l15.31,27.79c.24.47.35.9.35,1.29,0,.71-.24,1.32-.71,1.83-.47.51-1.06.77-1.77.77h-19.9c-1.49,0-2.63-.37-3.41-1.12-.79-.75-1.3-1.43-1.53-2.06l-11.78-24.26h-8.48v24.38c0,.86-.29,1.59-.88,2.18-.59.59-1.32.88-2.18.88h-19.19ZM288.77,127.7h11.19c2.75,0,4.79-.77,6.12-2.3,1.33-1.53,2-3.43,2-5.71s-.65-4.36-1.94-6.01c-1.3-1.65-3.36-2.47-6.18-2.47h-11.19v16.49Z"/>
    <path class="cls-2" d="M374.85,175.75c-6.91,0-12.74-1.02-17.49-3.06-4.75-2.04-8.38-5.04-10.89-9.01-2.51-3.96-3.93-8.73-4.24-14.31-.08-1.65-.12-3.45-.12-5.42s.04-3.77.12-5.42c.31-5.65,1.8-10.44,4.47-14.37,2.67-3.92,6.38-6.91,11.13-8.95,4.75-2.04,10.42-3.06,17.02-3.06s12.27,1.02,17.02,3.06c4.75,2.04,8.46,5.02,11.13,8.95,2.67,3.93,4.16,8.71,4.48,14.37.16,1.65.24,3.46.24,5.42s-.08,3.77-.24,5.42c-.31,5.58-1.73,10.34-4.24,14.31-2.51,3.97-6.14,6.97-10.89,9.01-4.75,2.04-10.58,3.06-17.49,3.06ZM345.29,177.87c-.63,0-1.18-.24-1.65-.71-.47-.47-.71-1.02-.71-1.65,0-.24.04-.49.12-.77.08-.27.27-.61.59-1l53.81-61.82c.24-.31.59-.69,1.06-1.12.47-.43,1.1-.65,1.88-.65h4c.63,0,1.18.24,1.65.71.47.47.71,1.02.71,1.65,0,.08-.02.29-.06.65-.04.35-.22.73-.53,1.12l-53.81,61.82c-.24.31-.59.69-1.06,1.12-.47.43-1.1.65-1.88.65h-4.12ZM374.85,159.14c2.9,0,4.91-.86,6.01-2.59,1.1-1.73,1.73-4.32,1.88-7.77.08-1.18.12-2.79.12-4.83s-.04-3.65-.12-4.83c-.16-3.37-.79-5.95-1.88-7.71-1.1-1.77-3.1-2.65-6.01-2.65s-4.79.88-5.89,2.65c-1.1,1.77-1.77,4.34-2,7.71-.08,1.18-.12,2.79-.12,4.83s.04,3.65.12,4.83c.24,3.46.9,6.05,2,7.77,1.1,1.73,3.06,2.59,5.89,2.59Z"/>
    <path class="cls-2" d="M437.37,175.75c-3.61,0-6.91-.55-9.89-1.65-2.98-1.1-5.58-2.79-7.77-5.06-2.2-2.28-3.93-5.14-5.18-8.6-1.26-3.45-2-7.5-2.24-12.13-.08-1.73-.12-3.22-.12-4.47s.04-2.71.12-4.36c.16-4.4.86-8.3,2.12-11.72,1.25-3.41,2.98-6.26,5.18-8.54,2.2-2.28,4.81-4.02,7.83-5.24,3.02-1.22,6.34-1.83,9.95-1.83s6.67.57,9.42,1.71c2.75,1.14,5.06,2.65,6.95,4.53v-24.38c0-.86.31-1.59.94-2.18.63-.59,1.33-.88,2.12-.88h18.13c.86,0,1.59.29,2.18.88.59.59.88,1.32.88,2.18v77.48c0,.86-.29,1.59-.88,2.18-.59.59-1.32.88-2.18.88h-16.6c-.86,0-1.61-.29-2.24-.88-.63-.59-.94-1.31-.94-2.18v-3.3c-1.88,2.28-4.26,4.1-7.12,5.48-2.87,1.37-6.42,2.06-10.66,2.06ZM445.38,157.38c2.04,0,3.67-.43,4.89-1.3,1.22-.86,2.08-2,2.59-3.41.51-1.41.8-2.98.88-4.71.16-1.73.24-3.24.24-4.53s-.08-2.73-.24-4.3c-.08-1.65-.41-3.1-1-4.36-.59-1.25-1.47-2.28-2.65-3.06-1.18-.78-2.75-1.18-4.71-1.18s-3.53.41-4.71,1.24c-1.18.82-2.02,1.96-2.53,3.42-.51,1.45-.84,3.12-1,5-.24,2.51-.24,5.02,0,7.54.16,1.88.49,3.55,1,5,.51,1.45,1.35,2.59,2.53,3.42,1.18.82,2.75,1.24,4.71,1.24Z"/>
    <path class="cls-2" d="M299.6,265.98c-7.3,0-13.72-1.14-19.25-3.42s-9.85-5.83-12.95-10.66c-3.1-4.83-4.65-10.93-4.65-18.31v-48.16c0-.86.31-1.59.94-2.18.63-.59,1.33-.88,2.12-.88h19.19c.86,0,1.59.29,2.18.88.59.59.88,1.32.88,2.18v47.81c0,4,.98,7.03,2.94,9.07,1.96,2.04,4.79,3.06,8.48,3.06s6.5-1.02,8.42-3.06c1.92-2.04,2.89-5.06,2.89-9.07v-47.81c0-.86.31-1.59.94-2.18.63-.59,1.37-.88,2.24-.88h19.08c.86,0,1.59.29,2.18.88.59.59.88,1.32.88,2.18v48.16c0,7.38-1.53,13.48-4.59,18.31-3.06,4.83-7.34,8.38-12.84,10.66-5.5,2.28-11.85,3.42-19.08,3.42Z"/>
    <path class="cls-2" d="M346,264.8c-.86,0-1.59-.29-2.18-.88-.59-.59-.88-1.31-.88-2.18v-55.11c0-.86.29-1.59.88-2.18.59-.59,1.31-.88,2.18-.88h17.07c.86,0,1.59.29,2.18.88.59.59.88,1.32.88,2.18v4.24c2.04-2.36,4.75-4.36,8.12-6.01,3.37-1.65,7.22-2.47,11.54-2.47s8.08.98,11.54,2.94c3.45,1.96,6.24,4.91,8.36,8.83,2.12,3.93,3.18,8.87,3.18,14.84v32.74c0,.86-.31,1.59-.94,2.18-.63.59-1.37.88-2.24.88h-18.61c-.86,0-1.59-.29-2.18-.88-.59-.59-.88-1.31-.88-2.18v-31.91c0-2.9-.71-5.14-2.12-6.71-1.41-1.57-3.42-2.36-6.01-2.36s-4.63.79-6.12,2.36c-1.49,1.57-2.24,3.81-2.24,6.71v31.91c0,.86-.29,1.59-.88,2.18-.59.59-1.32.88-2.18.88h-18.49Z"/>
    <path class="cls-2" d="M448.44,290.71c-6.36,0-11.64-.81-15.84-2.41-4.2-1.61-7.56-3.57-10.07-5.89-2.51-2.32-4.3-4.59-5.36-6.83-1.06-2.24-1.63-3.99-1.71-5.24-.08-.87.19-1.59.82-2.18.63-.59,1.37-.88,2.24-.88h18.96c.78,0,1.43.2,1.94.59.51.39.92.98,1.24,1.77.39.71.84,1.41,1.35,2.12.51.71,1.24,1.26,2.18,1.65.94.39,2.16.59,3.65.59,1.8,0,3.28-.32,4.42-.94,1.14-.63,2-1.61,2.59-2.94.59-1.34.88-3.1.88-5.3v-7.89c-1.88,1.81-4.18,3.24-6.89,4.3-2.71,1.06-5.91,1.59-9.6,1.59s-7.28-.53-10.3-1.59c-3.02-1.06-5.58-2.69-7.65-4.89-2.08-2.2-3.73-4.98-4.95-8.36-1.22-3.37-1.9-7.42-2.06-12.13-.08-2.04-.08-4.08,0-6.12.16-4.39.82-8.3,2-11.72,1.18-3.41,2.83-6.26,4.95-8.54,2.12-2.28,4.69-4.02,7.71-5.24,3.02-1.21,6.46-1.82,10.3-1.82,4.08,0,7.61.77,10.6,2.3,2.98,1.53,5.42,3.51,7.3,5.95v-4c0-.86.29-1.59.88-2.18.59-.59,1.31-.88,2.18-.88h17.07c.86,0,1.59.29,2.18.88.59.59.88,1.32.88,2.18l.12,56.29c0,6.36-1.35,11.58-4.06,15.66-2.71,4.08-6.46,7.12-11.25,9.13-4.79,2-10.36,3-16.72,3ZM447.38,244.9c1.88,0,3.42-.39,4.59-1.18,1.18-.78,2.06-1.83,2.65-3.12.59-1.29.96-2.77,1.12-4.42.08-.71.12-1.84.12-3.41s-.04-2.67-.12-3.3c-.16-1.65-.53-3.12-1.12-4.42-.59-1.3-1.47-2.34-2.65-3.12-1.18-.78-2.71-1.18-4.59-1.18-2.04,0-3.65.41-4.83,1.24-1.18.82-2.02,1.96-2.53,3.42-.51,1.45-.84,3.12-1,5-.16,1.65-.16,3.26,0,4.83.16,1.88.49,3.55,1,5,.51,1.45,1.35,2.59,2.53,3.42,1.18.82,2.79,1.24,4.83,1.24Z"/>
    <path class="cls-2" d="M511.32,265.98c-3.61,0-6.91-.55-9.89-1.65-2.98-1.1-5.58-2.79-7.77-5.06-2.2-2.28-3.93-5.14-5.18-8.6-1.26-3.45-2-7.5-2.24-12.13-.08-1.73-.12-3.22-.12-4.47s.04-2.71.12-4.36c.16-4.39.86-8.3,2.12-11.72,1.25-3.41,2.98-6.26,5.18-8.54,2.2-2.28,4.81-4.02,7.83-5.24,3.02-1.21,6.34-1.82,9.95-1.82s6.67.57,9.42,1.71c2.75,1.14,5.06,2.65,6.95,4.53v-24.38c0-.86.31-1.59.94-2.18.63-.59,1.33-.88,2.12-.88h18.13c.86,0,1.59.29,2.18.88.59.59.88,1.31.88,2.18v77.48c0,.86-.29,1.59-.88,2.18s-1.31.88-2.18.88h-16.6c-.86,0-1.61-.29-2.24-.88-.63-.59-.94-1.31-.94-2.18v-3.3c-1.88,2.28-4.26,4.1-7.12,5.48-2.87,1.37-6.42,2.06-10.66,2.06ZM519.33,247.61c2.04,0,3.67-.43,4.89-1.3,1.22-.86,2.08-2,2.59-3.41.51-1.41.8-2.98.88-4.71.16-1.73.24-3.24.24-4.53s-.08-2.73-.24-4.3c-.08-1.65-.41-3.1-1-4.36-.59-1.26-1.47-2.28-2.65-3.06-1.18-.78-2.75-1.18-4.71-1.18s-3.53.41-4.71,1.24c-1.18.82-2.02,1.96-2.53,3.42-.51,1.45-.84,3.12-1,5-.24,2.51-.24,5.03,0,7.54.16,1.88.49,3.55,1,5,.51,1.45,1.35,2.59,2.53,3.42,1.18.82,2.75,1.24,4.71,1.24Z"/>
    <path class="cls-2" d="M590.57,265.98c-6.91,0-12.74-1.02-17.49-3.06-4.75-2.04-8.38-5.04-10.89-9.01-2.51-3.96-3.93-8.73-4.24-14.31-.08-1.65-.12-3.45-.12-5.42s.04-3.77.12-5.42c.31-5.65,1.8-10.44,4.47-14.37,2.67-3.92,6.38-6.91,11.13-8.95,4.75-2.04,10.42-3.06,17.02-3.06s12.26,1.02,17.02,3.06c4.75,2.04,8.46,5.02,11.13,8.95,2.67,3.93,4.16,8.71,4.47,14.37.16,1.65.24,3.46.24,5.42s-.08,3.77-.24,5.42c-.31,5.57-1.73,10.34-4.24,14.31-2.51,3.96-6.14,6.97-10.89,9.01-4.75,2.04-10.58,3.06-17.49,3.06ZM590.57,249.37c2.9,0,4.91-.86,6.01-2.59,1.1-1.73,1.73-4.32,1.88-7.77.08-1.18.12-2.79.12-4.83s-.04-3.65-.12-4.83c-.16-3.37-.79-5.95-1.88-7.71-1.1-1.77-3.1-2.65-6.01-2.65s-4.79.88-5.89,2.65c-1.1,1.77-1.77,4.34-2,7.71-.08,1.18-.12,2.79-.12,4.83s.04,3.65.12,4.83c.24,3.46.9,6.05,2,7.77,1.1,1.73,3.06,2.59,5.89,2.59Z"/>
    <path class="cls-2" d="M632.37,264.8c-.86,0-1.59-.29-2.18-.88-.59-.59-.88-1.31-.88-2.18v-55.11c0-.86.29-1.59.88-2.18.59-.59,1.31-.88,2.18-.88h16.13c.86,0,1.59.29,2.18.88.59.59.88,1.32.88,2.18v3.89c1.49-1.88,3.65-3.67,6.48-5.36,2.83-1.69,6.16-2.61,10.01-2.77,9.18-.24,15.38,3.06,18.61,9.89,1.8-2.83,4.38-5.18,7.71-7.06,3.34-1.88,6.89-2.83,10.66-2.83,4.08,0,7.75.92,11.01,2.77,3.26,1.84,5.87,4.67,7.83,8.48,1.96,3.81,2.94,8.77,2.94,14.9v33.21c0,.86-.29,1.59-.88,2.18-.59.59-1.32.88-2.18.88h-17.19c-.87,0-1.59-.29-2.18-.88-.59-.59-.88-1.31-.88-2.18v-32.5c0-2.04-.31-3.67-.94-4.89-.63-1.22-1.43-2.12-2.41-2.71-.98-.59-2.14-.88-3.47-.88-1.26,0-2.4.29-3.42.88-1.02.59-1.83,1.49-2.41,2.71-.59,1.22-.88,2.85-.88,4.89v32.5c0,.86-.29,1.59-.88,2.18-.59.59-1.32.88-2.18.88h-17.19c-.87,0-1.59-.29-2.18-.88-.59-.59-.88-1.31-.88-2.18v-32.5c0-2.04-.31-3.67-.94-4.89-.63-1.22-1.43-2.12-2.41-2.71-.98-.59-2.14-.88-3.47-.88-1.26,0-2.4.31-3.42.94-1.02.63-1.85,1.53-2.47,2.71-.63,1.18-.94,2.79-.94,4.83v32.5c0,.86-.29,1.59-.88,2.18-.59.59-1.32.88-2.18.88h-17.55Z"/>
  </g>
</svg>