<?xml version="1.0" encoding="UTF-8"?>
<svg id="Layer_1" data-name="Layer 1" xmlns="http://www.w3.org/2000/svg" xmlns:xlink="http://www.w3.org/1999/xlink" viewBox="0 0 422.09 465.78">
  <defs>
    <style>
      .cls-1 {
        fill: #fff;
      }

      .cls-1, .cls-2, .cls-3 {
        fill-rule: evenodd;
      }

      .cls-2 {
        fill: url(#linear-gradient);
      }

      .cls-3 {
        fill: #da2115;
      }
    </style>
    <linearGradient id="linear-gradient" x1="-20.88" y1="544.5" x2="-20.81" y2="544.22" gradientTransform="translate(2223.9 127030.17) scale(98 -233)" gradientUnits="userSpaceOnUse">
      <stop offset="0" stop-color="#592300"/>
      <stop offset=".05" stop-color="#5e2301"/>
      <stop offset="1" stop-color="#b0250c"/>
    </linearGradient>
  </defs>
  <g>
    <path class="cls-2" d="M141.4,36.6l-6.68,132.7-1.85,8.92c-.37,2.97.74,6.32,2.97,8.55l89.77,79.17s3.71,3.35,4.08-1.86l1.11-46.46c0-3.35-.74-6.69-2.23-9.66L144,35.86s-1.11-1.86-1.86-1.86-.74.74-.74,2.6"/>
    <path class="cls-3" d="M230.8,265.85c0,2.98-1.86,5.96-4.45,7.82l-85.32,48.05s-2.23,1.12-2.23-1.12v-10.06c0-3.35,1.48-6.33,3.71-8.94l84.58-88.65c1.48-1.49,1.86-4.1.74-5.96,1.48,2.24,2.6,4.84,2.97,7.45v51.4ZM131.8,178.1c0,3.34,1.48,6.68,4.08,8.9-4.08-4.08-.74-4.08.74-4.08l226.65-13.36c2.97,0,5.19-2.6,5.19-5.57l3.34-159.17c0-1.48-.37-2.6-1.48-3.71-1.11-.74-2.23-1.11-3.71-1.11l-222.56,28.57c-2.97.74-5.19,3.34-5.19,6.31l-7.05,143.22Z"/>
    <path class="cls-1" d="M181.45,120.25c.74,5.22,2.58,6.71,9.59,5.97l23.61-1.49c5.9-.37,7.38-1.86,7.75-7.46v-2.98c0-5.59-1.47-7.08-7.38-6.71l-29.51,1.86c-9.22.75-14.76-1.12-18.81-5.59-3.69-4.1-5.53-10.81-5.16-18.64v-5.59c0-6.34,2.21-12.68,6.27-17.52,4.06-5.22,9.96-7.46,19.18-8.2l32.83-3.73c9.22-.75,14.76,1.12,18.81,5.59,3.69,3.73,4.79,8.58,5.16,17.9l-20.66,4.1c-.74-5.22-2.58-6.71-9.59-5.96l-23.61,1.49c-5.9.37-7.38,1.86-7.75,7.46v2.98c0,5.59,1.47,7.08,7.38,6.71l29.51-1.86c9.22-.75,14.76,1.12,18.81,5.59,3.69,4.1,5.53,10.81,5.16,18.64v5.59c0,7.08-2.21,13.8-6.27,19.39-4.06,5.22-9.96,7.46-19.18,8.2l-32.83,1.86c-9.22.75-14.76-1.12-18.81-5.59-3.69-3.73-4.8-8.57-5.16-17.9l20.66-4.1ZM278.69,113.62c0,5.57,1.49,7.06,7.44,6.68l26.42-1.49c5.95-.37,7.44-1.86,7.81-7.43l2.6-72.79,20.84-2.6-2.98,73.53c-.37,10.77-2.23,17.08-6.32,22.28-4.46,5.2-10.05,7.43-19.35,8.17l-33.11,1.86c-9.3.74-14.88-1.11-18.98-5.57-4.09-4.46-5.58-10.77-5.21-21.54l2.6-67.96,20.84-2.6-2.61,69.45Z"/>
  </g>
  <g>
    <path d="M10.95,368.17c.39,4.49,2.83,5.67,8.74,5.67s7.72-1.1,7.72-4.02c0-2.36-1.1-3.23-4.88-4.25l-11.5-2.76c-6.06-1.5-9.76-4.1-9.76-11.42,0-8.35,4.96-12.99,18.19-12.99,10.16,0,17.09,2.76,17.64,12.84h-10.95c-.55-3.7-1.81-4.72-6.85-4.72-5.75,0-7.09,1.34-7.09,3.7,0,1.97,1.1,2.99,4.57,3.86l10.24,2.44c7.56,1.81,11.34,4.73,11.34,11.73,0,9.76-7.4,13.7-18.74,13.7-10.71,0-19.14-3.54-19.61-13.78h10.95Z"/>
    <path d="M65.2,381.95c-10.71,0-21.18-4.17-21.18-21.81,0-14.96,7.56-21.81,21.26-21.81s21.34,6.85,21.34,21.81-7.88,21.81-21.42,21.81ZM65.28,347.3c-7.32,0-10,3.31-10,12.84s2.68,12.84,10.08,12.84,10-3.15,10-12.92-2.52-12.76-10.08-12.76Z"/>
    <path d="M102.85,368.17c.39,4.49,2.83,5.67,8.74,5.67s7.72-1.1,7.72-4.02c0-2.36-1.1-3.23-4.88-4.25l-11.5-2.76c-6.06-1.5-9.76-4.1-9.76-11.42,0-8.35,4.96-12.99,18.19-12.99,10.16,0,17.09,2.76,17.64,12.84h-10.95c-.55-3.7-1.81-4.72-6.85-4.72-5.75,0-7.09,1.34-7.09,3.7,0,1.97,1.1,2.99,4.57,3.86l10.24,2.44c7.56,1.81,11.34,4.73,11.34,11.73,0,9.76-7.4,13.7-18.74,13.7-10.71,0-19.14-3.54-19.61-13.78h10.95Z"/>
    <path d="M138.6,339.43h10.95v41.5h-10.95v-41.5Z"/>
    <path d="M158.84,352.03c.55-10.71,6.69-13.62,17.88-13.62s17.56,3.07,17.56,12.13v30.4h-10.47v-3.15c-2.13,2.21-6.14,4.17-12.76,4.17-9.92,0-13.47-4.41-13.47-11.5,0-9.21,5.98-12.68,12.05-13.62l13.7-2.13v-2.52c0-3.86-1.97-4.96-7.09-4.96-5.43,0-6.54,1.26-7.09,4.8h-10.32ZM183.33,361.79l-7.64,1.26c-4.17.63-7.17,1.5-7.17,5.91,0,3.15,1.58,4.88,6.46,4.88,6.69,0,8.35-3.62,8.35-8.74v-3.31Z"/>
    <path d="M204.27,324.47h10.95v56.46h-10.95v-56.46Z"/>
    <path d="M231.6,323.36c5.12,0,6.3,1.81,6.3,5.91s-1.18,5.83-6.3,5.83-6.22-1.73-6.22-5.83,1.1-5.91,6.22-5.91ZM226.17,339.43h10.95v41.5h-10.95v-41.5Z"/>
    <path d="M256.09,368.17c.39,4.49,2.83,5.67,8.74,5.67s7.72-1.1,7.72-4.02c0-2.36-1.1-3.23-4.88-4.25l-11.5-2.76c-6.06-1.5-9.76-4.1-9.76-11.42,0-8.35,4.96-12.99,18.19-12.99,10.16,0,17.09,2.76,17.64,12.84h-10.95c-.55-3.7-1.81-4.72-6.85-4.72-5.75,0-7.09,1.34-7.09,3.7,0,1.97,1.1,2.99,4.57,3.86l10.24,2.44c7.56,1.81,11.34,4.73,11.34,11.73,0,9.76-7.4,13.7-18.74,13.7-10.71,0-19.14-3.54-19.61-13.78h10.95Z"/>
    <path d="M310.74,348.25h-7.09v17.8c0,5.83,0,6.93,4.41,6.93,1.65,0,2.68-.16,2.68-.16v8.11s-3.78.63-7.8.63c-10.24,0-10.24-4.17-10.24-15.36v-17.96h-5.43v-8.82h5.43v-10.24h10.95v10.24h7.09v8.82Z"/>
    <path d="M323.5,323.36c5.12,0,6.3,1.81,6.3,5.91s-1.18,5.83-6.3,5.83-6.22-1.73-6.22-5.83,1.1-5.91,6.22-5.91ZM318.07,339.43h10.95v41.5h-10.95v-41.5Z"/>
    <path d="M347.99,368.17c.39,4.49,2.83,5.67,8.74,5.67s7.72-1.1,7.72-4.02c0-2.36-1.1-3.23-4.88-4.25l-11.5-2.76c-6.06-1.5-9.76-4.1-9.76-11.42,0-8.35,4.96-12.99,18.19-12.99,10.16,0,17.09,2.76,17.64,12.84h-10.95c-.55-3.7-1.81-4.72-6.85-4.72-5.75,0-7.09,1.34-7.09,3.7,0,1.97,1.1,2.99,4.57,3.86l10.24,2.44c7.56,1.81,11.34,4.73,11.34,11.73,0,9.76-7.4,13.7-18.74,13.7-10.71,0-19.14-3.54-19.61-13.78h10.95Z"/>
    <path d="M383.66,324.47h10.95v30.32l13.47-15.36h13.47l-14.49,15.75,15.04,25.75h-12.68l-10.08-18.03-4.73,4.88v13.15h-10.95v-56.46Z"/>
    <path d="M86.94,444.52c-2.83,4.57-7.95,5.43-12.84,5.43-10,0-14.33-3.7-14.33-15.59v-26.93h10.95v26.22c0,5.59,1.73,7.32,7.25,7.32s8.35-1.89,8.35-9.61v-23.94h10.95v41.5h-10.32v-4.41Z"/>
    <path d="M134.5,425.07c0-6.38-.08-9.69-7.09-9.69-7.8,0-8.66,4.09-8.66,13.86v19.69h-10.95v-41.5h10.4v5.36c2.99-4.02,6.22-6.38,13.86-6.38,10.63,0,13.39,4.57,13.39,17.17v25.36h-10.95v-23.86Z"/>
    <path d="M167.03,453.26c.39,2.05.95,4.41,7.8,4.41s8.27-2.52,8.27-9.45v-3.86c-2.28,3.15-5.51,4.65-11.42,4.65-11.81,0-17.88-5.99-17.88-21.26s5.91-21.34,17.17-21.34c7.95,0,11.26,3.07,12.68,5.51v-4.49h10.4v38.67c0,11.42-.95,19.69-20.24,19.69-11.42,0-18.66-2.91-18.9-12.52h12.13ZM173.8,440.03c7.17,0,9.37-3.62,9.37-12.52s-2.13-12.13-9.45-12.13c-6.06,0-8.66,2.36-8.66,12.52,0,8.9,1.97,12.13,8.74,12.13Z"/>
    <path d="M231.52,448.93v-3.94c-2.76,4.25-7.01,4.96-12.36,4.96-12.84-.08-17.48-8.43-17.48-21.89,0-16.14,6.62-21.66,17.33-21.66,6.93,0,10.32,2.28,12.13,4.65v-18.58h10.95v56.46h-10.55ZM222.47,415.38c-7.64,0-9.53,3.78-9.53,12.52,0,10.87,2.91,13.07,9.29,13.07s9.21-1.97,9.21-12.84c0-10.24-2.76-12.76-8.98-12.76Z"/>
    <path d="M270.9,449.95c-10.71,0-21.18-4.17-21.18-21.81,0-14.96,7.56-21.81,21.26-21.81s21.34,6.85,21.34,21.81-7.88,21.81-21.42,21.81ZM270.98,415.3c-7.32,0-10,3.31-10,12.84s2.68,12.84,10.08,12.84,10-3.15,10-12.92-2.52-12.76-10.08-12.76Z"/>
    <path d="M310.43,407.43v4.41c2.68-3.86,6.38-5.43,12.44-5.43,6.46,0,9.21,1.81,11.42,5.83,1.89-2.76,4.57-5.83,12.44-5.83,10.79,0,13.39,5.75,13.39,14.57v27.96h-10.95v-24.65c0-6.69-1.18-8.9-6.22-8.9-6.93,0-7.4,4.17-7.4,13.7v19.84h-10.95v-24.18c0-6.85,0-9.37-6.3-9.37-6.77,0-7.32,2.99-7.32,13.39v20.16h-10.95v-41.5h10.4Z"/>
  </g>
</svg>